<?xml version="1.0" encoding="UTF-8"?>
<!DOCTYPE svg PUBLIC "-//W3C//DTD SVG 1.1//EN" "http://www.w3.org/Graphics/SVG/1.1/DTD/svg11.dtd">
<svg xmlns="http://www.w3.org/2000/svg" version="1.1" width="512px" height="512px" style="shape-rendering:geometricPrecision; text-rendering:geometricPrecision; image-rendering:optimizeQuality; fill-rule:evenodd; clip-rule:evenodd" xmlns:xlink="http://www.w3.org/1999/xlink">
<g><path style="opacity:0.978" fill="#020101" d="M 125.5,-0.5 C 132.167,-0.5 138.833,-0.5 145.5,-0.5C 159.635,3.45992 170.468,11.7932 178,24.5C 216.141,5.83759 255.974,1.33759 297.5,11C 309.902,14.132 321.735,18.632 333,24.5C 340.532,11.7932 351.365,3.45992 365.5,-0.5C 372.167,-0.5 378.833,-0.5 385.5,-0.5C 416.528,10.8892 427.361,32.5558 418,64.5C 413.457,73.5443 406.957,80.8776 398.5,86.5C 405.467,97.7674 410.8,109.767 414.5,122.5C 414.107,126.325 412.107,128.658 408.5,129.5C 405.03,130.125 402.196,129.125 400,126.5C 397.863,120.421 395.529,114.421 393,108.5C 388.329,99.6825 383.495,91.0158 378.5,82.5C 378.94,79.7862 380.274,77.6195 382.5,76C 400.15,69.6777 407.984,57.1777 406,38.5C 399.786,20.6428 387.286,12.8094 368.5,15C 355.489,19.3449 347.322,28.1782 344,41.5C 342.406,43.2971 340.406,44.2971 338,44.5C 282.992,13.9563 227.992,13.9563 173,44.5C 170.594,44.2971 168.594,43.2971 167,41.5C 161.747,21.6253 148.914,12.792 128.5,15C 108.406,22.6874 101.24,36.8541 107,57.5C 111.385,66.8841 118.552,73.0507 128.5,76C 130.726,77.6195 132.06,79.7862 132.5,82.5C 126.16,93.178 120.326,104.178 115,115.5C 106.127,136.516 104.127,158.183 109,180.5C 112.232,191.315 117.732,200.649 125.5,208.5C 126.85,210.683 128.684,212.35 131,213.5C 166.64,197.108 201.14,199.275 234.5,220C 242.352,226.352 249.352,233.518 255.5,241.5C 271.91,219.291 293.91,206.457 321.5,203C 341.993,201.054 361.493,204.554 380,213.5C 382.316,212.35 384.15,210.683 385.5,208.5C 394.161,199.522 399.994,188.855 403,176.5C 404.065,167.198 404.732,157.865 405,148.5C 406.805,146.174 408.972,144.508 411.5,143.5C 414.617,143.642 417.117,144.976 419,147.5C 422.276,170.229 417.443,191.062 404.5,210C 420.425,214.041 432.925,222.874 442,236.5C 459.939,264.388 462.939,293.722 451,324.5C 445.377,334.29 437.211,340.957 426.5,344.5C 424.734,348.634 423.067,352.801 421.5,357C 462.343,347.353 487.176,363.186 496,404.5C 500.709,441.713 489.209,472.88 461.5,498C 453.011,504.412 443.678,508.912 433.5,511.5C 314.833,511.5 196.167,511.5 77.5,511.5C 47.1083,501.27 27.275,480.603 18,449.5C 9.99047,423.6 12.6571,398.933 26,375.5C 42.7429,354.365 63.9096,348.199 89.5,357C 87.9332,352.801 86.2665,348.634 84.5,344.5C 67.2433,338.071 57.0767,325.738 54,307.5C 50.9719,291.177 52.4719,275.344 58.5,260C 61.0135,258.748 63.6802,258.248 66.5,258.5C 69.5022,260.02 71.1689,262.52 71.5,266C 68.0064,279.817 67.673,293.651 70.5,307.5C 73.2447,320.412 81.078,328.078 94,330.5C 103.917,327.922 111.583,322.255 117,313.5C 119.433,309.633 121.6,305.633 123.5,301.5C 131.507,282.965 134.674,263.631 133,243.5C 129.55,229.524 120.716,223.691 106.5,226C 96.4604,229.701 88.4604,236.034 82.5,245C 79.2467,246.82 75.9133,246.987 72.5,245.5C 69.6967,242.796 68.8634,239.463 70,235.5C 78.918,222.449 91.0847,213.949 106.5,210C 92.597,188.822 87.7637,165.656 92,140.5C 95.3843,121.179 102.218,103.179 112.5,86.5C 87.3097,67.8475 82.4764,44.8475 98,17.5C 105.251,8.38726 114.418,2.38726 125.5,-0.5 Z"/></g>
<g><path style="opacity:1" fill="#ecbba3" d="M 408.5,129.5 C 409.755,134.106 410.755,138.773 411.5,143.5C 408.972,144.508 406.805,146.174 405,148.5C 404.732,157.865 404.065,167.198 403,176.5C 399.994,188.855 394.161,199.522 385.5,208.5C 358.507,194.447 330.174,191.613 300.5,200C 284.251,205.12 270.251,213.787 258.5,226C 256.5,226.667 254.5,226.667 252.5,226C 235.524,209.346 215.191,199.346 191.5,196C 168.027,192.965 146.027,197.132 125.5,208.5C 117.732,200.649 112.232,191.315 109,180.5C 104.127,158.183 106.127,136.516 115,115.5C 120.326,104.178 126.16,93.178 132.5,82.5C 132.06,79.7862 130.726,77.6195 128.5,76C 118.552,73.0507 111.385,66.8841 107,57.5C 101.24,36.8541 108.406,22.6874 128.5,15C 148.914,12.792 161.747,21.6253 167,41.5C 168.594,43.2971 170.594,44.2971 173,44.5C 227.992,13.9563 282.992,13.9563 338,44.5C 340.406,44.2971 342.406,43.2971 344,41.5C 347.322,28.1782 355.489,19.3449 368.5,15C 387.286,12.8094 399.786,20.6428 406,38.5C 407.984,57.1777 400.15,69.6777 382.5,76C 380.274,77.6195 378.94,79.7862 378.5,82.5C 383.495,91.0158 388.329,99.6825 393,108.5C 395.529,114.421 397.863,120.421 400,126.5C 402.196,129.125 405.03,130.125 408.5,129.5 Z"/></g>
<g><path style="opacity:1" fill="#edf2f7" d="M 132.5,29.5 C 146.338,29.8341 152.505,36.8341 151,50.5C 146.345,60.4111 138.845,63.5778 128.5,60C 117.076,51.0417 116.743,41.7084 127.5,32C 129.315,31.2432 130.981,30.4098 132.5,29.5 Z"/></g>
<g><path style="opacity:1" fill="#edf2f8" d="M 371.5,29.5 C 381.342,28.8445 387.842,33.1778 391,42.5C 391.19,56.3059 384.357,62.4726 370.5,61C 360.778,56.2841 357.611,48.7841 361,38.5C 363.505,34.1888 367.005,31.1888 371.5,29.5 Z"/></g>
<g><path style="opacity:1" fill="#050403" d="M 184.5,109.5 C 188.803,108.796 192.303,110.13 195,113.5C 195.87,119.917 195.536,126.251 194,132.5C 188.49,135.913 184.156,134.913 181,129.5C 180.333,124.167 180.333,118.833 181,113.5C 182.376,112.295 183.542,110.962 184.5,109.5 Z"/></g>
<g><path style="opacity:1" fill="#030202" d="M 246.5,109.5 C 255.931,108.646 264.931,110.146 273.5,114C 278.907,119.925 278.574,125.591 272.5,131C 269.244,132.474 265.911,133.64 262.5,134.5C 262.666,143.506 262.5,152.506 262,161.5C 258.733,165.934 254.733,166.6 250,163.5C 248.883,153.915 248.05,144.248 247.5,134.5C 239.549,133.545 234.883,129.212 233.5,121.5C 234.139,118.677 235.473,116.177 237.5,114C 240.592,112.454 243.592,110.954 246.5,109.5 Z"/></g>
<g><path style="opacity:1" fill="#040303" d="M 319.5,109.5 C 324.28,108.641 327.78,110.308 330,114.5C 330.667,119.5 330.667,124.5 330,129.5C 326.844,134.913 322.51,135.913 317,132.5C 315.464,126.251 315.13,119.917 316,113.5C 317.376,112.295 318.542,110.962 319.5,109.5 Z"/></g>
<g><path style="opacity:1" fill="#e6a890" d="M 385.5,208.5 C 384.15,210.683 382.316,212.35 380,213.5C 361.493,204.554 341.993,201.054 321.5,203C 293.91,206.457 271.91,219.291 255.5,241.5C 249.352,233.518 242.352,226.352 234.5,220C 201.14,199.275 166.64,197.108 131,213.5C 128.684,212.35 126.85,210.683 125.5,208.5C 146.027,197.132 168.027,192.965 191.5,196C 215.191,199.346 235.524,209.346 252.5,226C 254.5,226.667 256.5,226.667 258.5,226C 270.251,213.787 284.251,205.12 300.5,200C 330.174,191.613 358.507,194.447 385.5,208.5 Z"/></g>
<g><path style="opacity:1" fill="#d94953" d="M 404.5,356.5 C 389.417,380.777 371.083,402.61 349.5,422C 320.999,447.085 289.665,467.918 255.5,484.5C 209.565,462.096 169.065,432.096 134,394.5C 124.143,382.505 114.977,370.172 106.5,357.5C 104.437,352.978 102.77,348.312 101.5,343.5C 109.946,341.357 117.113,337.024 123,330.5C 142.058,304.313 150.391,274.98 148,242.5C 146.959,236.415 144.792,230.749 141.5,225.5C 157.686,217.598 174.686,215.432 192.5,219C 212.999,222.325 229.499,232.158 242,248.5C 245.099,253.125 247.432,258.125 249,263.5C 253.251,268.726 257.585,268.726 262,263.5C 270.439,241.733 285.939,227.566 308.5,221C 329.403,215.294 349.736,216.794 369.5,225.5C 366.227,230.719 364.06,236.385 363,242.5C 360.762,272.547 367.762,300.214 384,325.5C 390.603,334.102 398.936,340.435 409,344.5C 408.348,348.807 406.848,352.807 404.5,356.5 Z"/></g>
<g><path style="opacity:0.999" fill="#ecbba3" d="M 123.5,301.5 C 119.109,305.387 114.776,309.553 110.5,314C 95.2899,323.029 81.9565,320.863 70.5,307.5C 67.673,293.651 68.0064,279.817 71.5,266C 71.1689,262.52 69.5022,260.02 66.5,258.5C 68.2263,254.047 70.2263,249.714 72.5,245.5C 75.9133,246.987 79.2467,246.82 82.5,245C 88.4604,236.034 96.4604,229.701 106.5,226C 120.716,223.691 129.55,229.524 133,243.5C 134.674,263.631 131.507,282.965 123.5,301.5 Z"/></g>
<g><path style="opacity:1" fill="#ebbba3" d="M 440.5,307.5 C 428.891,320.542 415.558,322.708 400.5,314C 395.887,309.557 391.553,305.057 387.5,300.5C 378.989,282.428 375.822,263.428 378,243.5C 381.45,229.524 390.284,223.691 404.5,226C 420.853,233.355 432.019,245.521 438,262.5C 442.892,277.319 443.725,292.319 440.5,307.5 Z"/></g>
<g><path style="opacity:1" fill="#e2a58d" d="M 123.5,301.5 C 121.6,305.633 119.433,309.633 117,313.5C 111.583,322.255 103.917,327.922 94,330.5C 81.078,328.078 73.2447,320.412 70.5,307.5C 81.9565,320.863 95.2899,323.029 110.5,314C 114.776,309.553 119.109,305.387 123.5,301.5 Z"/></g>
<g><path style="opacity:1" fill="#e2a58d" d="M 387.5,300.5 C 391.553,305.057 395.887,309.557 400.5,314C 415.558,322.708 428.891,320.542 440.5,307.5C 437.782,320.384 429.949,328.051 417,330.5C 410.421,329.262 404.755,326.262 400,321.5C 394.803,315.106 390.637,308.106 387.5,300.5 Z"/></g>
<g><path style="opacity:1" fill="#d32d3c" d="M 404.5,356.5 C 398.473,370.886 390.64,384.219 381,396.5C 369.064,410.438 356.397,423.772 343,436.5C 342.366,439.555 342.532,442.555 343.5,445.5C 339.518,448.152 335.851,451.152 332.5,454.5C 329.993,451.964 326.993,451.131 323.5,452C 302.04,468.275 279.373,482.775 255.5,495.5C 207.241,470.77 165.407,437.77 130,396.5C 120.636,384.44 112.802,371.44 106.5,357.5C 114.977,370.172 124.143,382.505 134,394.5C 169.065,432.096 209.565,462.096 255.5,484.5C 289.665,467.918 320.999,447.085 349.5,422C 371.083,402.61 389.417,380.777 404.5,356.5 Z"/></g>
<g><path style="opacity:1" fill="#eabaa2" d="M 207.5,484.5 C 165.335,485.665 123.002,485.831 80.5,485C 65.7751,481.6 53.6084,474.1 44,462.5C 40.9054,457.936 37.7387,453.603 34.5,449.5C 28.1666,430.856 27.9999,412.189 34,393.5C 46.3146,368.951 64.8146,362.784 89.5,375C 102.412,384.248 112.912,395.748 121,409.5C 146.355,438.701 175.188,463.701 207.5,484.5 Z"/></g>
<g><path style="opacity:1" fill="#eabaa2" d="M 475.5,450.5 C 465.033,467.787 450.033,479.287 430.5,485C 387.998,485.831 345.665,485.665 303.5,484.5C 313.12,478.053 322.62,471.386 332,464.5C 333.735,461.21 333.901,457.877 332.5,454.5C 335.851,451.152 339.518,448.152 343.5,445.5C 346.259,447.293 349.259,447.793 352.5,447C 373.513,429.324 391.68,409.157 407,386.5C 416.85,375.825 429.016,369.825 443.5,368.5C 461.854,370.681 473.687,380.681 479,398.5C 483.26,416.352 482.093,433.685 475.5,450.5 Z"/></g>
<g><path style="opacity:1" fill="#040303" d="M 66.5,390.5 C 75.7037,390.345 83.7037,393.345 90.5,399.5C 108.758,419.074 112.591,441.074 102,465.5C 91.3116,476.463 79.8116,477.297 67.5,468C 47.7085,448.645 42.8751,426.145 53,400.5C 56.8018,396.037 61.3018,392.703 66.5,390.5 Z"/></g>
<g><path style="opacity:1" fill="#040303" d="M 432.5,391.5 C 449.03,389.189 459.197,396.189 463,412.5C 465.756,434.334 459.256,452.834 443.5,468C 428.247,478.666 415.747,476.166 406,460.5C 398.574,435.111 404.74,413.611 424.5,396C 427.391,394.726 430.058,393.226 432.5,391.5 Z"/></g>
<g><path style="opacity:1" fill="#eaf0f6" d="M 92.5,434.5 C 95.0945,447.551 90.0945,451.717 77.5,447C 72.6697,443.992 68.3364,440.492 64.5,436.5C 61.6711,427.433 61.8377,418.433 65,409.5C 68.5729,404.723 72.7396,404.223 77.5,408C 85.7175,415.042 90.7175,423.875 92.5,434.5 Z"/></g>
<g><path style="opacity:1" fill="#eaf0f6" d="M 446.5,436.5 C 443.378,439.446 440.044,442.279 436.5,445C 423.226,452.677 417.226,449.177 418.5,434.5C 420.283,423.875 425.283,415.042 433.5,408C 441.111,403.568 445.945,405.734 448,414.5C 448.963,421.974 448.463,429.307 446.5,436.5 Z"/></g>
<g><path style="opacity:1" fill="#d0dce6" d="M 92.5,434.5 C 94.6704,442.845 93.3371,450.679 88.5,458C 84.075,460.183 80.075,459.516 76.5,456C 70.8327,450.493 66.8327,443.993 64.5,436.5C 68.3364,440.492 72.6697,443.992 77.5,447C 90.0945,451.717 95.0945,447.551 92.5,434.5 Z"/></g>
<g><path style="opacity:1" fill="#d0dde6" d="M 418.5,434.5 C 417.226,449.177 423.226,452.677 436.5,445C 440.044,442.279 443.378,439.446 446.5,436.5C 444.021,445.47 439.021,452.637 431.5,458C 427.526,460.364 424.026,459.864 421,456.5C 417.564,449.323 416.731,441.99 418.5,434.5 Z"/></g>
<g><path style="opacity:1" fill="#e8a991" d="M 34.5,449.5 C 37.7387,453.603 40.9054,457.936 44,462.5C 53.6084,474.1 65.7751,481.6 80.5,485C 123.002,485.831 165.335,485.665 207.5,484.5C 213.302,488.572 219.302,492.406 225.5,496C 177.167,496.667 128.833,496.667 80.5,496C 57.6632,487.996 42.3299,472.496 34.5,449.5 Z"/></g>
<g><path style="opacity:1" fill="#e8aa91" d="M 475.5,450.5 C 467.827,474.007 452.161,489.174 428.5,496C 380.833,496.667 333.167,496.667 285.5,496C 291.698,492.406 297.698,488.572 303.5,484.5C 345.665,485.665 387.998,485.831 430.5,485C 450.033,479.287 465.033,467.787 475.5,450.5 Z"/></g>
</svg>
